<?xml version="1.0" encoding="iso-8859-1"?>
<!-- Uploaded to: SVG Repo, www.svgrepo.com, Generator: SVG Repo Mixer Tools -->
<!DOCTYPE svg PUBLIC "-//W3C//DTD SVG 1.1//EN" "http://www.w3.org/Graphics/SVG/1.1/DTD/svg11.dtd">
<svg fill="#000000" height="800px" width="800px" version="1.1" id="Capa_1" xmlns="http://www.w3.org/2000/svg" xmlns:xlink="http://www.w3.org/1999/xlink" 
	 viewBox="0 0 425.365 425.365" xml:space="preserve">
<path d="M397.644,135.13c-7.501-7.495-16.135-13.438-25.502-17.711c16.964-11.587,28.123-31.074,28.123-53.123
	C400.265,28.843,371.422,0,335.969,0s-64.296,28.843-64.296,64.296c0,21.526,10.644,40.6,26.933,52.276
	c-21.984,8.484-40.866,24.316-52.907,45.341c-3.646,6.354-10.456,10.302-17.773,10.302l-30.493,0
	c-7.319,0-14.126-3.945-17.765-10.297c-12.046-21.028-30.93-36.86-52.913-45.345c16.289-11.676,26.933-30.75,26.933-52.276
	C153.687,28.843,124.844,0,89.391,0S25.095,28.843,25.095,64.296c0,22.062,11.172,41.559,28.153,53.144
	C23.14,131.204,2.168,161.605,2.168,196.816v71.286c0,14.577,9.667,26.938,22.928,31.008v100.97c0,13.94,11.341,25.281,25.28,25.281
	h78.031c13.939,0,25.28-11.341,25.28-25.281V219.873c14.73,9.957,32.25,15.433,50.331,15.433l17.322,0.001
	c12.724,0,25.056-2.63,36.651-7.817c4.815-2.154,9.385-4.691,13.687-7.597v180.193c0,13.939,11.34,25.279,25.279,25.279h78.031
	c13.939,0,25.279-11.34,25.279-25.279V299.108c13.262-4.07,22.93-16.433,22.93-31.011v-71.285
	C423.198,173.514,414.123,151.609,397.644,135.13z M335.969,19c24.977,0,45.296,20.32,45.296,45.296s-20.319,45.296-45.296,45.296
	s-45.296-20.32-45.296-45.296S310.992,19,335.969,19z M44.095,64.296C44.095,39.32,64.415,19,89.391,19s45.296,20.32,45.296,45.296
	s-20.32,45.296-45.296,45.296S44.095,89.272,44.095,64.296z M204.018,216.306c-20.048,0-39.222-8.539-52.634-23.433
	c-2.258-2.507-5.672-3.776-8.983-3.129c-4.561,0.891-7.713,4.847-7.713,9.333V400.08c0,3.469-2.812,6.281-6.281,6.281h-24.064
	c-3.01,0-5.451-2.44-5.451-5.451v-94.16c0-5.06-3.818-9.478-8.867-9.805c-5.533-0.358-10.133,4.024-10.133,9.479v94.485
	c0,3.01-2.44,5.451-5.451,5.451H50.376c-3.468,0-6.28-2.812-6.28-6.28l0-109.051c0-5.246-4.251-9.501-9.498-9.5
	c-7.405,0.001-13.43-6.023-13.43-13.428v-70.608c0-37.899,31.01-69.206,68.907-68.899c30.211,0.244,58.233,16.657,73.208,42.944
	c6.968,12.232,20.072,19.675,34.15,19.675h13.289c6.529,0,12.244,4.836,12.856,11.337c0.702,7.459-5.172,13.755-12.489,13.755
	H204.018z M404.198,268.097c0,7.406-6.026,13.432-13.433,13.43c-5.246-0.001-9.497,4.254-9.497,9.5v109.059
	c0,3.468-2.811,6.279-6.279,6.279H350.92c-3.01,0-5.451-2.44-5.451-5.451V306.75c0-5.06-3.819-9.478-8.869-9.805
	c-5.533-0.358-10.131,4.024-10.131,9.48v94.49c0,3.01-2.44,5.451-5.451,5.451h-24.061c-3.468,0-6.279-2.811-6.279-6.279v-200.67
	c0-3.539-1.787-6.938-4.886-8.646c-3.949-2.176-8.769-1.294-11.691,1.97c-6.671,7.449-14.7,13.306-23.867,17.407
	c-2.986,1.335-6.039,2.433-9.139,3.336c0.996-3.065,1.54-6.331,1.54-9.723c0-5.118-1.233-9.951-3.405-14.229
	c9.554-2.871,17.86-9.291,22.953-18.17c15.107-26.38,43.38-42.768,73.784-42.768c18.221,0,35.354,7.095,48.244,19.975
	c12.889,12.888,19.986,30.021,19.986,48.245V268.097z"/>
</svg>